<?xml version="1.0" standalone="no"?>
<svg role="presentation" id="art-topology" viewBox="1740 812 902 902" width="100%" height="100%" xmlns="http://www.w3.org/2000/svg" style="background-color:#FAF9F8"><g role="presentation" tabIndex="-1" transform="matrix(1, 0, 0, 1, 1792, 864)"><g role="group" transform="translate(399, 399)" class="node-outer undimmed" aria-label="West Europe" tabindex="0"><g role="presentation" class="expanded-node"><g aria-hidden="false"><g><defs><filter id="blur" x="0" y="0"><feGaussianBlur in="SourceGraphic" stdDeviation="2"></feGaussianBlur></filter></defs><g class="large-expanded-group" transform="translate(-399,-399)" filter=""><rect class="outer-rect" rx="4px" ry="4px" width="798px" height="798px" stroke="#bbb" fill="#FFFFFF"></rect><g class="group-header"><rect class="header-outer-rect" width="798px" height="40px"></rect><g transform="translate(698, 0)"><foreignObject width="100" height="40"><div class="ms-OverflowSet node-command-bar root-240" role="menubar" aria-orientation="horizontal"><div class="ms-OverflowSet-item item-189" role="none"><button type="button" role="menuitem" aria-label="Collapse" class="ms-Button ms-Button--commandBar root-241" data-is-focusable="true"><span class="ms-Button-flexContainer flexContainer-177" data-automationid="splitbuttonprimary"><i data-icon-name="CollapseContent" aria-hidden="true" class="ms-Icon root-109 css-246 ms-Button-icon icon-242" style="font-family: &quot;FabricMDL2Icons-9&quot;;"></i></span></button></div><div class="ms-OverflowSet-overflowButton overflowButton-190"><button type="button" role="menuitem" title="More items" class="ms-Button ms-Button--commandBar ms-Button--hasMenu root-241" data-is-focusable="true" aria-expanded="false" aria-haspopup="true"><span class="ms-Button-flexContainer flexContainer-177" data-automationid="splitbuttonprimary"><i data-icon-name="More" aria-hidden="true" class="ms-Icon root-109 css-174 ms-Button-menuIcon menuIcon-247" style="font-family: &quot;FabricMDL2Icons&quot;;"></i></span></button></div></div></foreignObject></g><a listener="true"><svg aria-hidden="false" x="12" y="12" height="30" width="30"><svg height="30" width="30" preserveAspectRatio="none" id="b2b8e2bf-1dde-4fb6-9775-24e6035b15cc" xmlns="http://www.w3.org/2000/svg" viewBox="0 0 18 18"><defs><linearGradient id="a08e1e00-f62f-47db-8ba0-acb0e5cadf15" x1="9" y1="0.461" x2="9" y2="17.539" gradientUnits="userSpaceOnUse"><stop offset="0" stop-color="#b77af4"></stop><stop offset="0.621" stop-color="#8c4fe4"></stop><stop offset="0.997" stop-color="#773adc"></stop></linearGradient></defs><path d="M9,.461A5.191,5.191,0,0,0,3.972,5.878c0,2.363,3,7.9,4.365,11.217a.713.713,0,0,0,1.322,0c1.364-3.343,4.369-8.927,4.369-11.215A5.254,5.254,0,0,0,9,.461ZM9,7.8a2.235,2.235,0,1,1,2.235-2.235A2.235,2.235,0,0,1,9,7.8Z" fill="url(#a08e1e00-f62f-47db-8ba0-acb0e5cadf15)"></path></svg><rect height="30" width="30" class="clear-rect"><title></title></rect></svg><g aria-hidden="false" transform="translate(54, 28)" class="node-title" style="font-size: 15px;"><text y="0" x="0" class="text"><title>West Europe</title><tspan>West Europe</tspan></text><text y="15" x="0" class="sub-text"><title>Region</title><tspan>Region</tspan></text></g></a></g><svg class="node-content-overflow"><g transform="translate(50,50)"><g role="group" transform="translate(214.9999999999999, 116.17314097820162)" class="node-outer undimmed" aria-label="appgw-azure-appgateway-vmss-terraform-ansible-dev" tabindex="0"><g role="presentation" class="resource-node"><g aria-hidden="false"><g><a listener="true"><circle r="28" cx="0" cy="0" class="contrast-circle" filter="" style="stroke-width: 2px;" tabindex="0"></circle><svg aria-hidden="false" x="-15" y="-15" height="30" width="30"><svg id="acac5a34-a032-49f9-9397-37f4f1b4ae9a" height="30" width="30" preserveAspectRatio="none" viewBox="0 0 18 18"><defs><linearGradient id="f6d5399b-a5cb-4c09-96cc-9e3bb1af2386" x1="9" y1="19.25" x2="9" y2="-0.46" gradientTransform="translate(9 -3.73) rotate(45)" gradientUnits="userSpaceOnUse"><stop offset="0" stop-color="#5e9624"></stop><stop offset="0.55" stop-color="#6dad2a"></stop><stop offset="1" stop-color="#76bc2d"></stop></linearGradient><linearGradient id="a43242a2-4d95-4f6d-8870-2702ceb6aebc" x1="7.54" y1="6.44" x2="7.53" y2="5.18" gradientUnits="userSpaceOnUse"><stop offset="0" stop-color="#ccc"></stop><stop offset="0.12" stop-color="#d7d7d7"></stop><stop offset="0.42" stop-color="#ebebeb"></stop><stop offset="0.72" stop-color="#f8f8f8"></stop><stop offset="1" stop-color="#fcfcfc"></stop></linearGradient><linearGradient id="eedce6dd-706a-43c4-ac66-66b73578221d" x1="9.36" y1="7.69" x2="9.36" y2="6.57" href="#a43242a2-4d95-4f6d-8870-2702ceb6aebc"></linearGradient></defs><title>Icon-networking-76</title><rect x="2.82" y="2.82" width="12.35" height="12.35" rx="0.57" transform="translate(-3.73 9) rotate(-45)" fill="url(#f6d5399b-a5cb-4c09-96cc-9e3bb1af2386)"></rect><g><path d="M10.89,10.51h2.84a.11.11,0,0,0,.1-.11V7.57a.1.1,0,0,0-.18-.07l-.78.78,0,.05a.1.1,0,0,1-.14,0L9.26,4.91a.1.1,0,0,0-.14,0l-.88.88a.11.11,0,0,0,0,.15l3.41,3.41a.11.11,0,0,1,0,.15l-.05.05-.78.78A.11.11,0,0,0,10.89,10.51Z" fill="#fff"></path><path d="M6.92,10.51H4.08A.11.11,0,0,1,4,10.4V7.57a.1.1,0,0,1,.17-.07l.79.78,0,.05a.1.1,0,0,0,.14,0L8.55,4.91a.1.1,0,0,1,.14,0l.88.88a.11.11,0,0,1,0,.15L6.16,9.35a.11.11,0,0,0,0,.15l0,.05.78.78A.11.11,0,0,1,6.92,10.51Z" fill="#fff"></path><path d="M6.82,13.07l2,2a.1.1,0,0,0,.14,0l2-2a.1.1,0,0,0-.07-.17H9.72a.11.11,0,0,1-.1-.1V8a.1.1,0,0,0-.1-.11H8.28A.11.11,0,0,0,8.17,8V12.8a.1.1,0,0,1-.1.1H6.89A.1.1,0,0,0,6.82,13.07Z" fill="#fff"></path></g><path id="ac0a9c0c-2e8c-4843-b02b-2fadf76b27d0" d="M10.65,7.78A2.71,2.71,0,0,1,7.33,3.5l0,0a2.71,2.71,0,0,1,3.29,4.3" fill="#0078d4"></path><circle cx="7.53" cy="5.55" r="0.87" fill="url(#a43242a2-4d95-4f6d-8870-2702ceb6aebc)"></circle><g><path d="M6.67,7l.19.3L7,7.5a5.94,5.94,0,0,1,.34-1.1.85.85,0,0,1-.45-.23A6.71,6.71,0,0,0,6.67,7Z" fill="#f2f2f2" opacity="0.55"></path><path d="M7.24,4.73A4,4,0,0,1,7,3.8a2.48,2.48,0,0,0-.34.46A3.51,3.51,0,0,0,6.86,5,1,1,0,0,1,7.24,4.73Z" fill="#f2f2f2" opacity="0.55"></path><path d="M8.17,6.14a.87.87,0,0,1-.48.26,4.62,4.62,0,0,0,.46.41,4.14,4.14,0,0,0,.65.39V7.13A.53.53,0,0,1,9,6.73,3.6,3.6,0,0,1,8.17,6.14Z" fill="#f2f2f2" opacity="0.55"></path><path d="M10.79,7.2a4.14,4.14,0,0,1-.87-.1v0a.55.55,0,0,1-.16.39,3.84,3.84,0,0,0,1.08.08,2.93,2.93,0,0,0,.37-.42Z" fill="#f2f2f2" opacity="0.55"></path></g><circle cx="9.36" cy="7.13" r="0.56" fill="url(#eedce6dd-706a-43c4-ac66-66b73578221d)"></circle><circle cx="10.64" cy="5.74" r="0.6" fill="#f2f2f2"></circle><g><path d="M9.21,4.42A4.29,4.29,0,0,1,11.09,4a2.24,2.24,0,0,0-.47-.45,4.5,4.5,0,0,0-1.49.35c-.1,0-.19.11-.29.16h0a5.85,5.85,0,0,1-.63-.93l-.34.13a5.35,5.35,0,0,0,.65,1,3.92,3.92,0,0,0-.67.55.87.87,0,0,1,.43.35,3.29,3.29,0,0,1,.61-.48,9.16,9.16,0,0,0,1.17,1,.57.57,0,0,1,.2-.32A8.44,8.44,0,0,1,9.21,4.42Z" fill="#f2f2f2" opacity="0.55"></path><path d="M11.55,6.09h0l-.1,0h0l-.08,0h0l-.1-.06a.61.61,0,0,1-.2.3l.12.07h0l.11.06h0l.28.14h0a3.58,3.58,0,0,0,.09-.35Z" fill="#f2f2f2" opacity="0.55"></path></g><circle cx="7.53" cy="5.55" r="0.87" fill="#f2f2f2"></circle><circle cx="9.36" cy="7.13" r="0.56" fill="#f2f2f2"></circle></svg><rect height="30" width="30" class="clear-rect"><title>appgw-azure-appgateway-vmss-terraform-ansible-dev</title></rect></svg><g aria-hidden="false" transform="translate(0, 43)" class="node-title" style="font-size: 15px;"><text y="0" x="0" class="text"><title>appgw-azure-appgateway-vmss-terraform-ansible-dev</title><tspan>appgw-azu…sible-dev</tspan></text></g></a><svg aria-hidden="false" x="14" y="-28" height="37.5" width="37.5"><a role="button" class="cursor-pointer" aria-label="Expand" tabindex="0"><svg height="15" width="15" viewBox="0 0 16 16" fill="none" xmlns="http://www.w3.org/2000/svg"><circle cx="8" cy="8" r="8" fill="#0078D4"></circle><path d="M8.53353 7.46662V3.19995H7.46686V7.46662H3.2002V8.53328H7.46686V12.8H8.53353V8.53328H12.8002V7.46662H8.53353Z" fill="white"></path></svg></a></svg></g></g></g></g><g role="group" transform="translate(215.00000000000006, 583.8268590217984)" class="node-outer undimmed" aria-label="lb-internal-azure-appgateway-vmss-terraform-ansible-dev" tabindex="0"><g role="presentation" class="resource-node"><g aria-hidden="false"><g><a listener="true"><circle r="28" cx="0" cy="0" class="contrast-circle" filter="" style="stroke-width: 2px;" tabindex="0"></circle><svg aria-hidden="false" x="-15" y="-15" height="30" width="30"><svg id="e1e71e29-065a-46f7-ad4b-52af36a0bfcb" height="30" width="30" preserveAspectRatio="none" viewBox="0 0 18 18"><defs><linearGradient id="ef84663a-a7b6-46a7-a275-1e419f5eae62" x1="9" y1="19.85" x2="9" y2="-1.02" gradientUnits="userSpaceOnUse"><stop offset="0" stop-color="#5e9624"></stop><stop offset="0.02" stop-color="#5f9724"></stop><stop offset="1" stop-color="#76bc2d"></stop></linearGradient></defs><title>Icon-networking-62</title><path d="M.18,8.57,8.57.18a.6.6,0,0,1,.86,0l8.39,8.39a.6.6,0,0,1,0,.86l-8.4,8.4a.6.6,0,0,1-.84,0L.18,9.43A.6.6,0,0,1,.18,8.57Z" fill="url(#ef84663a-a7b6-46a7-a275-1e419f5eae62)"></path><path d="M11.2,4,9.08,1.89a.12.12,0,0,0-.16,0L6.8,4a.1.1,0,0,0,.08.18H8.12a.11.11,0,0,1,.11.11v2a.11.11,0,0,0,.11.11H9.66a.11.11,0,0,0,.11-.11v-2a.11.11,0,0,1,.11-.11h1.24A.1.1,0,0,0,11.2,4Z" fill="#b4ec36"></path><path d="M4,6.61,1.9,8.74a.11.11,0,0,0,0,.15L4,11a.11.11,0,0,0,.19-.08V9.69a.11.11,0,0,1,.11-.11h2a.1.1,0,0,0,.1-.11V8.15A.1.1,0,0,0,6.33,8h-2a.1.1,0,0,1-.11-.1V6.69A.11.11,0,0,0,4,6.61Z" fill="#b4ec36"></path><path d="M14.08,11l2.13-2.12a.11.11,0,0,0,0-.15L14.08,6.61a.11.11,0,0,0-.18.08V7.94a.1.1,0,0,1-.11.1h-2a.1.1,0,0,0-.1.11V9.47a.1.1,0,0,0,.1.11h2a.11.11,0,0,1,.11.11v1.24A.11.11,0,0,0,14.08,11Z" fill="#b4ec36"></path><path d="M11.79,9a2.79,2.79,0,1,0-3.54,2.67v.95a1.71,1.71,0,1,0,1.57,0v-1A2.77,2.77,0,0,0,11.79,9Z" fill="#fff"></path><circle id="e99c3387-15c3-4f28-bd4b-cb209b430e06" cx="9.01" cy="8.99" r="1.62" fill="#5ea0ef"></circle></svg><rect height="30" width="30" class="clear-rect"><title>lb-internal-azure-appgateway-vmss-terraform-ansible-dev</title></rect></svg><g aria-hidden="false" transform="translate(0, 43)" class="node-title" style="font-size: 15px;"><text y="0" x="0" class="text"><title>lb-internal-azure-appgateway-vmss-terraform-ansible-dev</title><tspan>lb-internal…ansible-dev</tspan></text></g></a><svg aria-hidden="false" x="14" y="-28" height="37.5" width="37.5"><a role="button" class="cursor-pointer" aria-label="Expand" tabindex="0"><svg height="15" width="15" viewBox="0 0 16 16" fill="none" xmlns="http://www.w3.org/2000/svg"><circle cx="8" cy="8" r="8" fill="#0078D4"></circle><path d="M8.53353 7.46662V3.19995H7.46686V7.46662H3.2002V8.53328H7.46686V12.8H8.53353V8.53328H12.8002V7.46662H8.53353Z" fill="white"></path></svg></a></svg></g></g></g></g><g role="group" transform="translate(620, 350)" class="node-outer undimmed" aria-label="vnet-azure-appgateway-vmss-terraform-ansible-dev" tabindex="0"><g role="presentation" class="resource-node"><g aria-hidden="false"><g><a listener="true"><circle r="28" cx="0" cy="0" class="contrast-circle" filter="" style="stroke-width: 2px;" tabindex="0"></circle><svg aria-hidden="false" x="-15" y="-15" height="30" width="30"><svg id="a1606a52-fb14-4637-87de-4d524bba1829" viewBox="0 0 18 18" height="30" width="30" preserveAspectRatio="none"><defs><linearGradient id="f020fb7e-2243-4501-8153-5d69bd3c34f7" x1="9.88" y1="8.59" x2="11.52" y2="10.23" gradientTransform="translate(2.03 -0.4) rotate(-0.08)" gradientUnits="userSpaceOnUse"><stop offset="0" stop-color="#86d633"></stop><stop offset="0.24" stop-color="#83d232"></stop><stop offset="0.5" stop-color="#7cc52f"></stop><stop offset="0.76" stop-color="#6fb02a"></stop><stop offset="1" stop-color="#5e9624"></stop></linearGradient><linearGradient id="b3c2bc94-8c7c-48a2-9719-6ee899a43a97" x1="6.18" y1="8.59" x2="7.81" y2="10.23" href="#f020fb7e-2243-4501-8153-5d69bd3c34f7"></linearGradient><linearGradient id="e900c35d-0958-4d4f-b28f-302eeaaf52f5" x1="2.48" y1="8.59" x2="4.11" y2="10.23" href="#f020fb7e-2243-4501-8153-5d69bd3c34f7"></linearGradient></defs><title>Icon-networking-61</title><circle cx="12.74" cy="8.99" r="1.16" fill="url(#f020fb7e-2243-4501-8153-5d69bd3c34f7)"></circle><circle cx="9.04" cy="9" r="1.16" fill="url(#b3c2bc94-8c7c-48a2-9719-6ee899a43a97)"></circle><circle cx="5.34" cy="9" r="1.16" fill="url(#e900c35d-0958-4d4f-b28f-302eeaaf52f5)"></circle><path d="M2.61,7.28h.94a.3.3,0,0,1,.3.3v6.94a.6.6,0,0,1-.6.6H2.31a0,0,0,0,1,0,0V7.58a.3.3,0,0,1,.3-.3Z" transform="translate(13.18 16.93) rotate(134.92)" fill="#50e6ff"></path><path d="M2.56,2.91H3.5a.3.3,0,0,1,.3.3v7.43a0,0,0,0,1,0,0H2.86a.6.6,0,0,1-.6-.6V3.21a.3.3,0,0,1,.3-.3Z" transform="translate(5.66 -0.16) rotate(44.92)" fill="#1490df"></path><path d="M14.15,7.28h.94a.6.6,0,0,1,.6.6v6.94a.3.3,0,0,1-.3.3h-.94a.3.3,0,0,1-.3-.3V7.28a0,0,0,0,1,0,0Z" transform="translate(12.32 -7.28) rotate(45.08)" fill="#50e6ff"></path><path d="M14.81,2.91h.94a0,0,0,0,1,0,0v7.43a.3.3,0,0,1-.3.3H14.5a.3.3,0,0,1-.3-.3V3.51a.6.6,0,0,1,.6-.6Z" transform="translate(30.36 0.99) rotate(135.08)" fill="#1490df"></path></svg><rect height="30" width="30" class="clear-rect"><title>vnet-azure-appgateway-vmss-terraform-ansible-dev</title></rect></svg><g aria-hidden="false" transform="translate(0, 43)" class="node-title" style="font-size: 15px;"><text y="0" x="0" class="text"><title>vnet-azure-appgateway-vmss-terraform-ansible-dev</title><tspan>vnet-azure…nsible-dev</tspan></text></g></a><svg aria-hidden="false" x="14" y="-28" height="37.5" width="37.5"><a role="button" class="cursor-pointer" aria-label="Expand" tabindex="0"><svg height="15" width="15" viewBox="0 0 16 16" fill="none" xmlns="http://www.w3.org/2000/svg"><circle cx="8" cy="8" r="8" fill="#0078D4"></circle><path d="M8.53353 7.46662V3.19995H7.46686V7.46662H3.2002V8.53328H7.46686V12.8H8.53353V8.53328H12.8002V7.46662H8.53353Z" fill="white"></path></svg></a></svg></g></g></g></g></g></svg></g><g transform="translate(-399,-92.25)" id="warning" visibility="hidden"><foreignObject x="13" y="0" width="768" height="184.5"><div style="background-color: white;"><div class="node-warning-heading"><span> Attention! </span></div><div class="node-warning-body"><p>You have expanded more nodes than what can be legible viewed in this visualization, you can switch to table view</p><div class="ms-Stack css-248"><button type="button" class="ms-Link root-249"> Continue with graphical</button><button type="button" class="ms-Link root-249"> Switch to table view</button></div></div></div></foreignObject></g></g></g></g></g></g><style>.edge-path{fill: none; stroke: #B3B0AD; stroke-width: 2; opacity: 0.5;}
                        .contrast-circle, .inner-circle{fill: #fff; stroke: #B0C4DE; stroke-width: 2;}
                        .clear-rect {fill: transparent;}
                        .pill {fill: #B3B0AD; stroke: #B3B0AD; stroke-width: 2;}
                        .pill-text {fill: #ffffff;}
                        .bg-circle {fill: #fff; stroke: #B0C4DE}
                        .healthy-edge-path {stroke: #57A300;}
                        .unhealthy-edge-path {stroke: #E00B1C;}
                        .unknown-health-edge-path {stroke: #7A7A7A;}
                        .warning-edge-path {stroke: #FF8C00;}
                        .large-expanded-group .group-header .header-outer-rect {fill: transparent;}
                        .node-title .sub-text {font-size: 12px; fill: rgb(75, 75, 75); text-transform: uppercase;}
                        .node-title text {font-size: 15px;text-anchor: middle;}
                        .resource-node .node-title { text-shadow: 0px 0px 2px white, 0px 0px 4px white, 0px 0px 6px white, 0px 0px 8px white, 0px 0px 10px white, 0px 0px 12px white, 0px 0px 14px white, 0px 0px 16px white;}
                        .large-expanded-group .group-header .node-title text {text-anchor: start;font-family: Segoe UI;font-style: normal;font-weight: 600;font-size: 18px;line-height: 24px;}
                        .large-expanded-group .group-header .node-title .sub-text {text-anchor: start;font-family: Segoe UI;font-style: normal;font-weight: normal;font-size: 12px;line-height: 16px;stroke: #605e5c;}
                        .msportalfx-svg-c14 {fill: #57a300;}
                        .msportalfx-svg-c01 {fill: #fff;}
                        .small-expanded-group .group-header .header-outer-rect {fill: #dce4ef;}
                        .small-expanded-group .group-header .node-title text { text-anchor: start; font-family: Segoe UI; font-style: normal; font-weight: normal; font-size: 12px; line-height: 18px;}
                        .small-expanded-group .group-header .node-title .sub-text { text-anchor: start; font-family: Segoe UI; font-style: normal; font-weight: normal; font-size: 11px; line-height: 16px; stroke: #605e5c;}</style></svg>